<?xml version="1.0" encoding="UTF-8" standalone="no"?>
<!-- Created with Inkscape (http://www.inkscape.org/) -->

<svg
   version="1.1"
   id="svg2"
   width="334.66666"
   height="394.66666"
   viewBox="0 0 334.66666 394.66666"
   xmlns="http://www.w3.org/2000/svg"
   xmlns:svg="http://www.w3.org/2000/svg">
  <defs
     id="defs6" />
  <g
     id="g8">
    <path
       style="fill:#000000;stroke-width:1.33333"
       d="m 116.90607,357.34974 c 0.47165,-2.56667 3.25316,-9.76667 6.18114,-16 10.50419,-22.36222 12.04539,-26.15707 15.15844,-37.32396 1.73626,-6.22818 3.15748,-14.02817 3.15828,-17.33333 0.001,-6.00938 0.001,-6.00938 9.76236,-10.3979 12.06695,-5.4253 18.71364,-11.67988 21.57864,-20.3056 2.79023,-8.4006 2.22895,-13.35289 -1.67578,-14.78574 -2.75016,-1.00919 -3,-0.71138 -3,3.57594 0,5.6738 -3.75616,13.33019 -8.8779,18.0963 -3.95157,3.6772 -15.50844,9.80569 -25.78877,13.67556 -11.01718,4.14722 -12.29708,5.82178 -12.49334,16.34565 -0.1587,8.50996 -0.61766,9.93905 -5.43999,16.93897 -3.71752,5.39623 -5.26667,9.04231 -5.26667,12.39567 0,4.75076 0,4.75076 -2.51711,1.64226 -2.0775,-2.5656 -2.3608,-4.35949 -1.62214,-10.27157 1.07902,-8.63619 -1.02418,-14.91892 -4.99424,-14.91892 -1.472149,0 -5.001089,2.1 -7.842079,4.66667 -6.47381,5.84869 -10.81457,6.02974 -15.83041,0.66026 -4.17908,-4.47372 -7.31116,-4.22917 -8.53997,0.66679 -2.076593,8.27381 -13.647134,16.24121 -21.182537,14.58616 -3.849318,-0.84545 -3.849318,-0.84545 -0.554582,-4.37933 1.812104,-1.94364 4.007161,-5.76424 4.877904,-8.49024 1.457559,-4.56312 6.236621,-9.79558 11.808852,-12.92915 2.007323,-1.12882 1.771285,-1.75436 -2.089311,-5.53696 -6.920041,-6.78022 -7.054708,-10.1332 -0.63456,-15.79952 2.977516,-2.6279 7.697724,-8.37801 10.489344,-12.77801 2.79163,-4.4 10.3456,-13.52307 16.7866,-20.27349 7.58962,-7.95423 11.730419,-13.35031 11.766359,-15.33334 0.0688,-3.79953 3.928,-14.27144 6.62352,-17.9731 1.10677,-1.51988 4.40677,-3.88852 7.33334,-5.26362 7.03614,-3.30606 7.36714,-6.58638 1.38689,-13.74428 -5.90091,-7.06293 -6.40395,-13.23722 -1.3992,-17.17396 4.40808,-3.4674 4.20464,-6.54562 -0.77191,-11.68013 -5.59283,-5.77033 -6.65383,-13.47751 -2.63276,-19.12457 1.62739,-2.28544 4.12423,-4.10018 5.64133,-4.10018 2.99585,0 2.95667,-1.52753 -0.39857,-15.53881 -1.42724,-5.96004 -1.35588,-7.31441 0.53764,-10.20428 1.20081,-1.83268 4.75751,-4.19021 7.90378,-5.23897 5.69373,-1.8979 5.72138,-1.93849 5.91096,-8.676175 0.3889,-13.82086 5.37028,-20.34177 15.53926,-20.34177 5.48161,0 6.27027,-1.41319 6.27027,-11.23573 0,-5.004428 0.66938,-7.612659 2.33333,-9.091767 3.21563,-2.858409 11.11372,-4.823782 14.33421,-3.566946 4.28172,1.670986 4.51412,1.521372 7.49835,-4.827303 4.35899,-9.273344 12.15185,-12.270845 19.94043,-7.670022 3.81926,2.256098 3.88676,2.238412 8.1676,-2.140128 3.84948,-3.937348 4.92701,-4.346214 9.95918,-3.779015 3.43227,0.386867 7.26863,2.004153 9.79335,4.128571 3.91776,3.296568 4.36645,3.380973 7.99589,1.504116 6.3103,-3.263176 11.47215,-2.564202 14.85515,2.011558 2.27068,3.07125 4.003,4 7.46091,4 5.87293,0 9.66159,2.109791 9.66159,5.380245 0,2.163618 0.92044,2.619755 5.28643,2.619755 5.60141,0 8.04691,2.404597 8.04691,7.912345 0,1.543651 0.86794,2.754321 1.9746,2.754321 2.02206,0 4.33274,6.1371 2.86376,7.60608 -0.44838,0.44838 -0.30316,1.47044 0.32269,2.27124 0.62585,0.80081 1.52393,3.07358 1.99575,5.0506 0.74081,3.10426 -0.0955,2.58661 -6.1308,-3.79486 -8.07924,-8.5426 -14.30359,-12.47129 -28.29364,-17.858371 -13.34257,-5.137768 -24.13768,-6.139508 -36.06569,-3.346744 -18.4206,4.312906 -30.53795,12.003445 -44.52556,28.259125 -11.71792,13.61795 -18.58239,28.099325 -22.14504,46.717435 -3.80302,19.87414 -2.26938,33.35793 5.84958,51.42993 4.0438,9.00111 4.0438,9.00111 -1.56758,11.81336 -6.46975,3.24244 -12.94474,8.92289 -12.94474,11.35631 0,3.49481 3.08392,3.31661 8.4436,-0.48791 10.01484,-7.10892 16.7257,-8.84517 30.24366,-7.82469 7.69366,0.58078 12.93029,0.39344 14.64445,-0.52396 5.14236,-2.75211 2.59544,1.09486 -6.12671,9.25401 -7.76848,7.26703 -21.07208,15.15929 -30.38649,18.02657 -2.41343,0.74294 -2.41932,0.87968 -0.1462,3.39146 2.97732,3.28989 5.87892,2.66058 19.83389,-4.30159 10.5062,-5.24159 10.5062,-5.24159 15.83227,-0.13979 8.76767,8.39847 16.69671,16.99244 21.42832,23.22531 9.14349,12.04456 14.23321,19.91205 14.23321,22.00117 0,1.18362 -2.24934,6.43978 -4.99853,11.68035 -8.99872,17.15352 -24.25603,29.89512 -56.76899,47.4086 -28.10546,15.13933 -38.58661,22.9429 -46.57612,34.67748 -2.34364,3.44222 -2.34364,3.44222 -1.4861,-1.22444 z m -1.57144,-119.12585 c 1.87065,-2.45256 3.40118,-4.81067 3.40118,-5.24027 0,-1.74693 -8.83086,1.86203 -11,4.49545 -3.1746,3.8541 -2.93281,5.204 0.93215,5.204 2.13616,0 4.44173,-1.54214 6.66667,-4.45918 z"
       id="path881" />
  </g>
</svg>
